<svg width="123" height="82" viewBox="0 0 123 82" fill="none" xmlns="http://www.w3.org/2000/svg">
<path fill-rule="evenodd" clip-rule="evenodd" d="M53.5 2C49.634 2 46.5 5.13401 46.5 9V10H38V8H44.5549C45.0524 3.50005 48.8674 0 53.5 0C56.6837 0 59.4798 1.65328 61.079 4.14452C61.5385 4.04971 62.0138 4 62.5 4C65.2937 4 67.7031 5.63609 68.8261 8H84V10H67.4514L67.2157 9.33325C66.5289 7.38991 64.6755 6 62.5 6C61.9445 6 61.412 6.09022 60.9154 6.25603L60.1062 6.52616L59.7119 5.7697C58.5432 3.52741 56.1991 2 53.5 2ZM25 8H28V10H25V8ZM31 8H34V10H31V8ZM103.988 12.0545C105.236 10.2128 107.348 9 109.744 9C113.242 9 116.136 11.5848 116.621 14.9487H122.5V16.9487H114.692V15.9487C114.692 13.2156 112.477 11 109.744 11C107.836 11 106.178 12.0793 105.352 13.6652L104.958 14.4217L104.148 14.1515C103.805 14.0369 103.436 13.9744 103.051 13.9744C101.546 13.9744 100.262 14.9362 99.7865 16.282L99.5508 16.9487H91.5V14.9487H98.1879C99.0923 13.1838 100.93 11.9744 103.051 11.9744C103.37 11.9744 103.683 12.0018 103.988 12.0545ZM1.5 20H5V22H1.5V20ZM8 20H11.5V22H8V20ZM15.5 20H81V35H97.4142L111 48.5858V70H101.929C101.444 73.3923 98.5265 76 95 76C91.4735 76 88.5561 73.3923 88.0709 70H58.6038V81.6623H0V45.7H20.7547V22H15.5V20ZM22.7547 22V45.7H58.6038V68H79V22H22.7547ZM81 68H88.0709C88.5561 64.6077 91.4735 62 95 62C98.5265 62 101.444 64.6077 101.929 68H109V49.4142L96.5858 37H81V68ZM20.7547 47.7H2V79.6623H56.6038V47.7H36.9057V55.2472H20.7547V47.7ZM34.9057 47.7H22.7547V53.2472H34.9057V47.7ZM88 39.7H93.7642L104.064 50H88V39.7ZM90 41.7V48H99.2358L92.9358 41.7H90ZM52.9434 59.9075V76.0019H38.7358V74.0019H50.9434V59.9075H52.9434ZM95 64C92.2386 64 90 66.2386 90 69C90 71.7614 92.2386 74 95 74C97.7614 74 100 71.7614 100 69C100 66.2386 97.7614 64 95 64ZM10.434 64.1537L14.9147 68.6344L13.5004 70.0486L11.434 67.9821V75.0019H9.43396V67.9821L7.36748 70.0486L5.95327 68.6344L10.434 64.1537ZM21.7547 64.1537L26.2354 68.6344L24.8212 70.0486L22.7547 67.9821V75.0019H20.7547V67.9821L18.6882 70.0486L17.274 68.6344L21.7547 64.1537Z" fill="#E51B23"/>
<path fill-rule="evenodd" clip-rule="evenodd" d="M53.5 2C49.634 2 46.5 5.13401 46.5 9V10H38V8H44.5549C45.0524 3.50005 48.8674 0 53.5 0C56.6837 0 59.4798 1.65328 61.079 4.14452C61.5385 4.04971 62.0138 4 62.5 4C65.2937 4 67.7031 5.63609 68.8261 8H84V10H67.4514L67.2157 9.33325C66.5289 7.38991 64.6755 6 62.5 6C61.9445 6 61.412 6.09022 60.9154 6.25603L60.1062 6.52616L59.7119 5.7697C58.5432 3.52741 56.1991 2 53.5 2ZM25 8H28V10H25V8ZM31 8H34V10H31V8ZM103.988 12.0545C105.236 10.2128 107.348 9 109.744 9C113.242 9 116.136 11.5848 116.621 14.9487H122.5V16.9487H114.692V15.9487C114.692 13.2156 112.477 11 109.744 11C107.836 11 106.178 12.0793 105.352 13.6652L104.958 14.4217L104.148 14.1515C103.805 14.0369 103.436 13.9744 103.051 13.9744C101.546 13.9744 100.262 14.9362 99.7865 16.282L99.5508 16.9487H91.5V14.9487H98.1879C99.0923 13.1838 100.93 11.9744 103.051 11.9744C103.37 11.9744 103.683 12.0018 103.988 12.0545ZM1.5 20H5V22H1.5V20ZM8 20H11.5V22H8V20ZM15.5 20H81V35H97.4142L111 48.5858V70H101.929C101.444 73.3923 98.5265 76 95 76C91.4735 76 88.5561 73.3923 88.0709 70H58.6038V81.6623H0V45.7H20.7547V22H15.5V20ZM22.7547 22V45.7H58.6038V68H79V22H22.7547ZM81 68H88.0709C88.5561 64.6077 91.4735 62 95 62C98.5265 62 101.444 64.6077 101.929 68H109V49.4142L96.5858 37H81V68ZM20.7547 47.7H2V79.6623H56.6038V47.7H36.9057V55.2472H20.7547V47.7ZM34.9057 47.7H22.7547V53.2472H34.9057V47.7ZM88 39.7H93.7642L104.064 50H88V39.7ZM90 41.7V48H99.2358L92.9358 41.7H90ZM52.9434 59.9075V76.0019H38.7358V74.0019H50.9434V59.9075H52.9434ZM95 64C92.2386 64 90 66.2386 90 69C90 71.7614 92.2386 74 95 74C97.7614 74 100 71.7614 100 69C100 66.2386 97.7614 64 95 64ZM10.434 64.1537L14.9147 68.6344L13.5004 70.0486L11.434 67.9821V75.0019H9.43396V67.9821L7.36748 70.0486L5.95327 68.6344L10.434 64.1537ZM21.7547 64.1537L26.2354 68.6344L24.8212 70.0486L22.7547 67.9821V75.0019H20.7547V67.9821L18.6882 70.0486L17.274 68.6344L21.7547 64.1537Z" fill="url(#paint0_linear)"/>
<defs>
<linearGradient id="paint0_linear" x1="95.0001" y1="36" x2="95.0001" y2="108.6" gradientUnits="userSpaceOnUse">
<stop stop-color="white" stop-opacity="0.1"/>
<stop offset="1" stop-color="white" stop-opacity="0"/>
<stop offset="1" stop-opacity="0.1"/>
</linearGradient>
</defs>
</svg>
