<svg width="59" height="82" viewBox="0 0 59 82" fill="none" xmlns="http://www.w3.org/2000/svg">
<path fill-rule="evenodd" clip-rule="evenodd" d="M0 46H58.6038V81.9623H0V46ZM2 48V79.9623H56.6038V48H36.9057V55.5472H20.7547V48H2ZM22.7547 48V53.5472H34.9057V48H22.7547ZM52.9434 60.2075V76.3019H38.7358V74.3019H50.9434V60.2075H52.9434ZM10.434 64.4537L14.9147 68.9344L13.5004 70.3486L11.434 68.2821V75.3019H9.43396V68.2821L7.36748 70.3486L5.95327 68.9344L10.434 64.4537ZM21.7547 64.4537L26.2354 68.9344L24.8212 70.3486L22.7547 68.2821V75.3019H20.7547V68.2821L18.6882 70.3486L17.274 68.9344L21.7547 64.4537Z" fill="#E51B23"/>
<path fill-rule="evenodd" clip-rule="evenodd" d="M0 46H58.6038V81.9623H0V46ZM2 48V79.9623H56.6038V48H36.9057V55.5472H20.7547V48H2ZM22.7547 48V53.5472H34.9057V48H22.7547ZM52.9434 60.2075V76.3019H38.7358V74.3019H50.9434V60.2075H52.9434ZM10.434 64.4537L14.9147 68.9344L13.5004 70.3486L11.434 68.2821V75.3019H9.43396V68.2821L7.36748 70.3486L5.95327 68.9344L10.434 64.4537ZM21.7547 64.4537L26.2354 68.9344L24.8212 70.3486L22.7547 68.2821V75.3019H20.7547V68.2821L18.6882 70.3486L17.274 68.9344L21.7547 64.4537Z" fill="url(#paint0_linear)"/>
<path fill-rule="evenodd" clip-rule="evenodd" d="M19.2071 36.2071L12.7071 42.7071L11.2929 41.2929L17.7929 34.7929L19.2071 36.2071ZM46.2929 42.7071L39.7929 36.2071L41.2071 34.7929L47.7071 41.2929L46.2929 42.7071Z" fill="#E51B23"/>
<path fill-rule="evenodd" clip-rule="evenodd" d="M19.2071 36.2071L12.7071 42.7071L11.2929 41.2929L17.7929 34.7929L19.2071 36.2071ZM46.2929 42.7071L39.7929 36.2071L41.2071 34.7929L47.7071 41.2929L46.2929 42.7071Z" fill="url(#paint1_linear)"/>
<path fill-rule="evenodd" clip-rule="evenodd" d="M17 0H41V7.11803L33.2361 11H24.7639L17 7.11803V0ZM19 2V5.88197L25.2361 9H32.7639L39 5.88197V2H19Z" fill="#E51B23"/>
<path fill-rule="evenodd" clip-rule="evenodd" d="M17 0H41V7.11803L33.2361 11H24.7639L17 7.11803V0ZM19 2V5.88197L25.2361 9H32.7639L39 5.88197V2H19Z" fill="url(#paint2_linear)"/>
<path fill-rule="evenodd" clip-rule="evenodd" d="M24 9H34V20H31.5C29.0147 20 27 22.0147 27 24.5C27 26.9853 29.0147 29 31.5 29C33.9853 29 36 26.9853 36 24.5V23.5H40.9451L40.9878 24.4553C40.9959 24.6359 41 24.8175 41 25C41 31.6274 35.6274 37 29 37C22.3726 37 17 31.6274 17 25C17 20.1555 19.8703 15.9837 24 14.0884V9ZM26 11V15.4329L25.3638 15.6814C21.6372 17.1367 19 20.7616 19 25C19 30.5228 23.4772 35 29 35C34.3552 35 38.7272 30.7906 38.9877 25.5H37.9236C37.4425 28.6151 34.7498 31 31.5 31C27.9101 31 25 28.0899 25 24.5C25 20.9101 27.9101 18 31.5 18H32V11H26Z" fill="#E51B23"/>
<path fill-rule="evenodd" clip-rule="evenodd" d="M24 9H34V20H31.5C29.0147 20 27 22.0147 27 24.5C27 26.9853 29.0147 29 31.5 29C33.9853 29 36 26.9853 36 24.5V23.5H40.9451L40.9878 24.4553C40.9959 24.6359 41 24.8175 41 25C41 31.6274 35.6274 37 29 37C22.3726 37 17 31.6274 17 25C17 20.1555 19.8703 15.9837 24 14.0884V9ZM26 11V15.4329L25.3638 15.6814C21.6372 17.1367 19 20.7616 19 25C19 30.5228 23.4772 35 29 35C34.3552 35 38.7272 30.7906 38.9877 25.5H37.9236C37.4425 28.6151 34.7498 31 31.5 31C27.9101 31 25 28.0899 25 24.5C25 20.9101 27.9101 18 31.5 18H32V11H26Z" fill="url(#paint3_linear)"/>
<defs>
<linearGradient id="paint0_linear" x1="29.6061" y1="19" x2="29.6061" y2="31.32" gradientUnits="userSpaceOnUse">
<stop stop-color="white" stop-opacity="0.1"/>
<stop offset="1" stop-color="white" stop-opacity="0"/>
<stop offset="1" stop-opacity="0.1"/>
</linearGradient>
<linearGradient id="paint1_linear" x1="29.6061" y1="19" x2="29.6061" y2="31.32" gradientUnits="userSpaceOnUse">
<stop stop-color="white" stop-opacity="0.1"/>
<stop offset="1" stop-color="white" stop-opacity="0"/>
<stop offset="1" stop-opacity="0.1"/>
</linearGradient>
<linearGradient id="paint2_linear" x1="29.6061" y1="19" x2="29.6061" y2="31.32" gradientUnits="userSpaceOnUse">
<stop stop-color="white" stop-opacity="0.1"/>
<stop offset="1" stop-color="white" stop-opacity="0"/>
<stop offset="1" stop-opacity="0.1"/>
</linearGradient>
<linearGradient id="paint3_linear" x1="29.6061" y1="19" x2="29.6061" y2="31.32" gradientUnits="userSpaceOnUse">
<stop stop-color="white" stop-opacity="0.1"/>
<stop offset="1" stop-color="white" stop-opacity="0"/>
<stop offset="1" stop-opacity="0.1"/>
</linearGradient>
</defs>
</svg>
