<svg width="100" height="78" viewBox="0 0 100 78" fill="none" xmlns="http://www.w3.org/2000/svg">
<path fill-rule="evenodd" clip-rule="evenodd" d="M0 0H72V52.75H0V0ZM2 2V50.75H70V2H45.1667V11.3333H25.6667V2H2ZM27.6667 2V9.33333H43.1667V2H27.6667ZM8 39H13V44H8V39ZM10 41V42H11V41H10ZM17 39H22V44H17V39ZM19 41V42H20V41H19ZM26 39H31V44H26V39ZM28 41V42H29V41H28Z" fill="#E51B23"/>
<path fill-rule="evenodd" clip-rule="evenodd" d="M0 0H72V52.75H0V0ZM2 2V50.75H70V2H45.1667V11.3333H25.6667V2H2ZM27.6667 2V9.33333H43.1667V2H27.6667ZM8 39H13V44H8V39ZM10 41V42H11V41H10ZM17 39H22V44H17V39ZM19 41V42H20V41H19ZM26 39H31V44H26V39ZM28 41V42H29V41H28Z" fill="url(#paint0_linear)"/>
<path d="M86 47C86 51.705 84.0886 55.9636 81 59.0416C77.9253 62.1058 73.6838 64 69 64C59.6112 64 52 56.3888 52 47C52 37.6112 59.6112 30 69 30C78.3888 30 86 37.6112 86 47Z" fill="white"/>
<path fill-rule="evenodd" clip-rule="evenodd" d="M69 31C60.1634 31 53 38.1634 53 47C53 55.8366 60.1634 63 69 63C73.4086 63 77.3992 61.2183 80.2941 58.3333C83.2022 55.4352 85 51.4285 85 47C85 38.1634 77.8366 31 69 31ZM51 47C51 37.0589 59.0589 29 69 29C78.9411 29 87 37.0589 87 47C87 51.621 85.2576 55.8366 82.3958 59.0232L84.4584 61.0858L86 59.5442L99.9558 73.5L95.5 77.9558L81.5442 64L83.0442 62.5L80.9793 60.4351C77.798 63.2735 73.5998 65 69 65C59.0589 65 51 56.9411 51 47ZM84.3726 64L95.5 75.1274L97.1274 73.5L86 62.3726L84.3726 64Z" fill="#E51B23"/>
<path fill-rule="evenodd" clip-rule="evenodd" d="M69 31C60.1634 31 53 38.1634 53 47C53 55.8366 60.1634 63 69 63C73.4086 63 77.3992 61.2183 80.2941 58.3333C83.2022 55.4352 85 51.4285 85 47C85 38.1634 77.8366 31 69 31ZM51 47C51 37.0589 59.0589 29 69 29C78.9411 29 87 37.0589 87 47C87 51.621 85.2576 55.8366 82.3958 59.0232L84.4584 61.0858L86 59.5442L99.9558 73.5L95.5 77.9558L81.5442 64L83.0442 62.5L80.9793 60.4351C77.798 63.2735 73.5998 65 69 65C59.0589 65 51 56.9411 51 47ZM84.3726 64L95.5 75.1274L97.1274 73.5L86 62.3726L84.3726 64Z" fill="url(#paint1_linear)"/>
<line x1="76" y1="40" x2="76" y2="54" stroke="#E51B23" stroke-width="2"/>
<line x1="76" y1="40" x2="76" y2="54" stroke="url(#paint2_linear)" stroke-width="2"/>
<line x1="72" y1="40" x2="72" y2="54" stroke="#E51B23" stroke-width="2"/>
<line x1="72" y1="40" x2="72" y2="54" stroke="url(#paint3_linear)" stroke-width="2"/>
<line x1="62" y1="40" x2="62" y2="54" stroke="#E51B23" stroke-width="2"/>
<line x1="62" y1="40" x2="62" y2="54" stroke="url(#paint4_linear)" stroke-width="2"/>
<line x1="66" y1="40" x2="66" y2="54" stroke="#E51B23" stroke-width="2"/>
<line x1="66" y1="40" x2="66" y2="54" stroke="url(#paint5_linear)" stroke-width="2"/>
<defs>
<linearGradient id="paint0_linear" x1="28.5" y1="40" x2="28.5" y2="45.4621" gradientUnits="userSpaceOnUse">
<stop stop-color="white" stop-opacity="0.1"/>
<stop offset="1" stop-color="white" stop-opacity="0"/>
<stop offset="1" stop-opacity="0.1"/>
</linearGradient>
<linearGradient id="paint1_linear" x1="69.0001" y1="30" x2="69.0001" y2="104.8" gradientUnits="userSpaceOnUse">
<stop stop-color="white" stop-opacity="0.1"/>
<stop offset="1" stop-color="white" stop-opacity="0"/>
<stop offset="1" stop-opacity="0.1"/>
</linearGradient>
<linearGradient id="paint2_linear" x1="75" y1="47" x2="72.8" y2="47" gradientUnits="userSpaceOnUse">
<stop stop-color="white" stop-opacity="0.1"/>
<stop offset="1" stop-color="white" stop-opacity="0"/>
<stop offset="1" stop-opacity="0.1"/>
</linearGradient>
<linearGradient id="paint3_linear" x1="71" y1="47" x2="68.8" y2="47" gradientUnits="userSpaceOnUse">
<stop stop-color="white" stop-opacity="0.1"/>
<stop offset="1" stop-color="white" stop-opacity="0"/>
<stop offset="1" stop-opacity="0.1"/>
</linearGradient>
<linearGradient id="paint4_linear" x1="61" y1="47" x2="58.8" y2="47" gradientUnits="userSpaceOnUse">
<stop stop-color="white" stop-opacity="0.1"/>
<stop offset="1" stop-color="white" stop-opacity="0"/>
<stop offset="1" stop-opacity="0.1"/>
</linearGradient>
<linearGradient id="paint5_linear" x1="65" y1="47" x2="62.8" y2="47" gradientUnits="userSpaceOnUse">
<stop stop-color="white" stop-opacity="0.1"/>
<stop offset="1" stop-color="white" stop-opacity="0"/>
<stop offset="1" stop-opacity="0.1"/>
</linearGradient>
</defs>
</svg>
