<svg width="90" height="75" viewBox="0 0 90 75" fill="none" xmlns="http://www.w3.org/2000/svg">
<path fill-rule="evenodd" clip-rule="evenodd" d="M70.5901 4.00426L68.2929 1.70706L69.7071 0.292847L74.4142 4.99995L69.7071 9.70706L68.2929 8.29285L70.5807 6.00499C61.3856 6.22755 54 13.7512 54 22.9999C54 32.3888 61.6112 39.9999 71 39.9999C80.3888 39.9999 88 32.3888 88 22.9999H90C90 33.1579 82.0286 41.454 72 41.9741V74.75H0V22L52.0259 21.9999C52.5389 12.1066 60.6197 4.21529 70.5901 4.00426ZM52.0259 23.9999L45.1667 24V33.3333H25.6667V24H2V72.75H70V41.9741C60.3026 41.4712 52.5287 33.6973 52.0259 23.9999ZM27.6667 24V31.3333H43.1667V24H27.6667ZM8 61H13V66H8V61ZM10 63V64H11V63H10ZM17 61H22V66H17V61ZM19 63V64H20V63H19ZM26 61H31V66H26V61ZM28 63V64H29V63H28Z" fill="#E51B23"/>
<path fill-rule="evenodd" clip-rule="evenodd" d="M70.5901 4.00426L68.2929 1.70706L69.7071 0.292847L74.4142 4.99995L69.7071 9.70706L68.2929 8.29285L70.5807 6.00499C61.3856 6.22755 54 13.7512 54 22.9999C54 32.3888 61.6112 39.9999 71 39.9999C80.3888 39.9999 88 32.3888 88 22.9999H90C90 33.1579 82.0286 41.454 72 41.9741V74.75H0V22L52.0259 21.9999C52.5389 12.1066 60.6197 4.21529 70.5901 4.00426ZM52.0259 23.9999L45.1667 24V33.3333H25.6667V24H2V72.75H70V41.9741C60.3026 41.4712 52.5287 33.6973 52.0259 23.9999ZM27.6667 24V31.3333H43.1667V24H27.6667ZM8 61H13V66H8V61ZM10 63V64H11V63H10ZM17 61H22V66H17V61ZM19 63V64H20V63H19ZM26 61H31V66H26V61ZM28 63V64H29V63H28Z" fill="url(#paint0_linear)"/>
<defs>
<linearGradient id="paint0_linear" x1="73" y1="3.92208" x2="66.5713" y2="3.92208" gradientUnits="userSpaceOnUse">
<stop stop-color="white" stop-opacity="0.1"/>
<stop offset="1" stop-color="white" stop-opacity="0"/>
<stop offset="1" stop-opacity="0.1"/>
</linearGradient>
</defs>
</svg>
