<svg width="122" height="77" viewBox="0 0 122 77" fill="none" xmlns="http://www.w3.org/2000/svg">
<path fill-rule="evenodd" clip-rule="evenodd" d="M31.6981 0H90.3019V35.9623H31.6981V0ZM33.6981 2V33.9623H88.3019V2H68.6038V9.54717H52.4528V2H33.6981ZM54.4528 2V7.54717H66.6038V2H54.4528ZM84.6415 14.2075V30.3019H70.434V28.3019H82.6415V14.2075H84.6415ZM42.1321 18.4537L46.6128 22.9344L45.1986 24.3486L43.1321 22.2821V29.3019H41.1321V22.2821L39.0656 24.3486L37.6514 22.9344L42.1321 18.4537ZM53.4528 18.4537L57.9335 22.9344L56.5193 24.3486L54.4528 22.2821V29.3019H52.4528V22.2821L50.3864 24.3486L48.9721 22.9344L53.4528 18.4537ZM0 40.7547H58.6038V76.717H0V40.7547ZM2 42.7547V74.717H56.6038V42.7547H36.9057V50.3019H20.7547V42.7547H2ZM22.7547 42.7547V48.3019H34.9057V42.7547H22.7547ZM63.3962 40.7547H122V76.717H63.3962V40.7547ZM65.3962 42.7547V74.717H120V42.7547H100.302V50.3019H84.1509V42.7547H65.3962ZM86.1509 42.7547V48.3019H98.3019V42.7547H86.1509ZM52.9434 54.9623V71.0566H38.7359V69.0566H50.9434V54.9623H52.9434ZM116.34 54.9623V71.0566H102.132V69.0566H114.34V54.9623H116.34ZM10.434 59.2084L14.9147 63.6891L13.5004 65.1033L11.434 63.0369V70.0566H9.43396V63.0369L7.36748 65.1033L5.95327 63.6891L10.434 59.2084ZM21.7547 59.2084L26.2354 63.6891L24.8212 65.1033L22.7547 63.0369V70.0566H20.7547V63.0369L18.6882 65.1033L17.274 63.6891L21.7547 59.2084ZM73.8302 59.2084L78.3109 63.6891L76.8967 65.1033L74.8302 63.0369V70.0566H72.8302V63.0369L70.7637 65.1033L69.3495 63.6891L73.8302 59.2084ZM85.1509 59.2084L89.6316 63.6891L88.2174 65.1033L86.1509 63.0369V70.0566H84.1509V63.0369L82.0845 65.1033L80.6702 63.6891L85.1509 59.2084Z" fill="#E51B23"/>
<path fill-rule="evenodd" clip-rule="evenodd" d="M31.6981 0H90.3019V35.9623H31.6981V0ZM33.6981 2V33.9623H88.3019V2H68.6038V9.54717H52.4528V2H33.6981ZM54.4528 2V7.54717H66.6038V2H54.4528ZM84.6415 14.2075V30.3019H70.434V28.3019H82.6415V14.2075H84.6415ZM42.1321 18.4537L46.6128 22.9344L45.1986 24.3486L43.1321 22.2821V29.3019H41.1321V22.2821L39.0656 24.3486L37.6514 22.9344L42.1321 18.4537ZM53.4528 18.4537L57.9335 22.9344L56.5193 24.3486L54.4528 22.2821V29.3019H52.4528V22.2821L50.3864 24.3486L48.9721 22.9344L53.4528 18.4537ZM0 40.7547H58.6038V76.717H0V40.7547ZM2 42.7547V74.717H56.6038V42.7547H36.9057V50.3019H20.7547V42.7547H2ZM22.7547 42.7547V48.3019H34.9057V42.7547H22.7547ZM63.3962 40.7547H122V76.717H63.3962V40.7547ZM65.3962 42.7547V74.717H120V42.7547H100.302V50.3019H84.1509V42.7547H65.3962ZM86.1509 42.7547V48.3019H98.3019V42.7547H86.1509ZM52.9434 54.9623V71.0566H38.7359V69.0566H50.9434V54.9623H52.9434ZM116.34 54.9623V71.0566H102.132V69.0566H114.34V54.9623H116.34ZM10.434 59.2084L14.9147 63.6891L13.5004 65.1033L11.434 63.0369V70.0566H9.43396V63.0369L7.36748 65.1033L5.95327 63.6891L10.434 59.2084ZM21.7547 59.2084L26.2354 63.6891L24.8212 65.1033L22.7547 63.0369V70.0566H20.7547V63.0369L18.6882 65.1033L17.274 63.6891L21.7547 59.2084ZM73.8302 59.2084L78.3109 63.6891L76.8967 65.1033L74.8302 63.0369V70.0566H72.8302V63.0369L70.7637 65.1033L69.3495 63.6891L73.8302 59.2084ZM85.1509 59.2084L89.6316 63.6891L88.2174 65.1033L86.1509 63.0369V70.0566H84.1509V63.0369L82.0845 65.1033L80.6702 63.6891L85.1509 59.2084Z" fill="url(#paint0_linear)"/>
<defs>
<linearGradient id="paint0_linear" x1="61" y1="1" x2="61" y2="75.717" gradientUnits="userSpaceOnUse">
<stop stop-color="white" stop-opacity="0.1"/>
<stop offset="1" stop-color="white" stop-opacity="0"/>
<stop offset="1" stop-opacity="0.1"/>
</linearGradient>
</defs>
</svg>
